<svg width="552" height="323" viewBox="0 0 552 323" fill="none" xmlns="http://www.w3.org/2000/svg">
<g clip-path="url(#clip0_92_785)">
<path d="M92.629 307.461C92.1867 307.48 91.7489 307.367 91.3748 307.136C91.0007 306.905 90.7084 306.568 90.5376 306.17C90.3668 305.772 90.3257 305.332 90.4199 304.91C90.514 304.488 90.7389 304.105 91.064 303.812L91.212 303.238C91.1925 303.192 91.1729 303.147 91.1532 303.101C90.7076 302.075 89.961 301.2 89.0071 300.586C88.0532 299.972 86.9346 299.647 85.7918 299.651C84.6489 299.656 83.5328 299.989 82.5836 300.609C81.6344 301.23 80.8945 302.11 80.4567 303.139C78.7073 307.247 76.4799 311.362 75.9315 315.705C75.69 317.625 75.7918 319.572 76.2326 321.457C72.1236 312.719 69.9899 303.221 69.9762 293.608C69.9754 291.196 70.1128 288.786 70.388 286.388C70.6154 284.423 70.9309 282.472 71.3345 280.534C73.5368 270.023 78.2653 260.171 85.1317 251.787C88.455 250.019 91.1426 247.3 92.8323 243.997C93.4445 242.81 93.8771 241.543 94.1168 240.235C93.7419 240.283 92.7033 234.716 92.986 234.375C92.4636 233.602 91.5285 233.218 90.9579 232.463C88.1202 228.713 84.2105 229.368 82.1694 234.465C77.8093 236.61 77.7671 240.168 80.4425 243.59C82.1445 245.767 82.3784 248.713 83.8718 251.044C83.7182 251.235 83.5584 251.421 83.4047 251.613C80.5961 255.134 78.1482 258.915 76.096 262.901C76.5951 258.435 75.9995 253.917 74.3582 249.719C72.6947 245.807 69.5768 242.512 66.8312 239.13C63.5332 235.068 56.7704 236.841 56.1894 241.99C56.1837 242.04 56.1782 242.09 56.1729 242.14C56.5807 242.364 56.9799 242.602 57.3705 242.854C57.8612 243.174 58.2414 243.63 58.4614 244.164C58.6813 244.698 58.7307 245.285 58.603 245.846C58.4754 246.408 58.1767 246.919 57.746 247.312C57.3154 247.706 56.7729 247.963 56.1896 248.051L56.1299 248.06C56.2752 249.493 56.532 250.913 56.8981 252.308C53.3757 265.588 60.9802 270.425 71.8384 270.642C72.0781 270.762 72.3117 270.882 72.5514 270.996C70.4896 276.692 69.1964 282.626 68.7042 288.647C68.4255 292.2 68.4419 295.768 68.7533 299.318L68.7349 299.192C67.9481 295.245 65.7882 291.683 62.6198 289.109C57.9139 285.34 51.2654 283.952 46.1886 280.923C45.6491 280.585 45.0217 280.405 44.3806 280.403C43.7394 280.402 43.1112 280.579 42.5699 280.914C42.0287 281.249 41.5971 281.728 41.326 282.295C41.0548 282.861 40.9555 283.491 41.0397 284.111C41.0466 284.155 41.0535 284.199 41.0605 284.243C41.8173 284.544 42.5542 284.89 43.2668 285.28C43.6746 285.504 44.0739 285.742 44.4644 285.994C44.9551 286.314 45.3354 286.77 45.5553 287.304C45.7752 287.838 45.8246 288.424 45.6969 288.986C45.5693 289.548 45.2706 290.059 44.8399 290.452C44.4093 290.846 43.8668 291.103 43.2835 291.191L43.2237 291.2C43.1807 291.206 43.1439 291.212 43.1009 291.218C44.394 294.228 46.2089 296.998 48.4661 299.408C50.6685 311.001 60.128 312.101 70.2467 308.725H70.2528C71.3631 313.429 72.9717 318.007 75.0527 322.386H92.1993C92.2609 322.2 92.3161 322.009 92.3715 321.823C90.7843 321.92 89.191 321.828 87.6269 321.547C88.8991 320.025 90.1713 318.492 91.4435 316.97C91.4718 316.941 91.4985 316.911 91.5234 316.88C92.1687 316.101 92.8201 315.328 93.4654 314.549L93.4658 314.548C93.5002 312.161 93.2185 309.778 92.629 307.461Z" fill="#F2F2F2"/>
<path d="M450.765 307.461C451.207 307.48 451.645 307.367 452.019 307.136C452.393 306.905 452.685 306.568 452.856 306.17C453.027 305.772 453.068 305.332 452.974 304.91C452.88 304.488 452.655 304.105 452.33 303.812L452.182 303.238C452.201 303.192 452.221 303.147 452.241 303.101C452.686 302.075 453.433 301.2 454.387 300.586C455.341 299.972 456.459 299.647 457.602 299.651C458.745 299.656 459.861 299.989 460.81 300.609C461.759 301.23 462.499 302.11 462.937 303.139C464.687 307.247 466.914 311.362 467.462 315.705C467.704 317.625 467.602 319.572 467.161 321.457C471.27 312.719 473.404 303.221 473.418 293.608C473.419 291.196 473.281 288.786 473.006 286.388C472.779 284.423 472.463 282.472 472.059 280.534C469.857 270.023 465.129 260.171 458.262 251.787C454.939 250.019 452.251 247.3 450.562 243.997C449.949 242.81 449.517 241.543 449.277 240.235C449.652 240.283 450.691 234.716 450.408 234.375C450.93 233.602 451.865 233.218 452.436 232.463C455.274 228.713 459.183 229.368 461.224 234.465C465.585 236.61 465.627 240.168 462.951 243.59C461.249 245.767 461.016 248.713 459.522 251.044C459.676 251.235 459.836 251.421 459.989 251.613C462.798 255.134 465.246 258.915 467.298 262.901C466.799 258.435 467.394 253.917 469.036 249.719C470.699 245.807 473.817 242.512 476.563 239.13C479.861 235.068 486.624 236.841 487.205 241.99C487.21 242.04 487.216 242.09 487.221 242.14C486.813 242.364 486.414 242.602 486.023 242.854C485.533 243.174 485.152 243.63 484.933 244.164C484.713 244.698 484.663 245.285 484.791 245.846C484.919 246.408 485.217 246.919 485.648 247.312C486.079 247.706 486.621 247.963 487.204 248.051L487.264 248.06C487.119 249.493 486.862 250.913 486.496 252.308C490.018 265.588 482.414 270.425 471.555 270.642C471.316 270.762 471.082 270.882 470.843 270.996C472.904 276.692 474.198 282.626 474.69 288.647C474.968 292.2 474.952 295.768 474.641 299.318L474.659 299.192C475.446 295.245 477.606 291.683 480.774 289.109C485.48 285.34 492.129 283.952 497.205 280.923C497.745 280.585 498.372 280.405 499.013 280.403C499.655 280.402 500.283 280.579 500.824 280.914C501.365 281.249 501.797 281.728 502.068 282.295C502.339 282.861 502.438 283.491 502.354 284.111C502.347 284.155 502.34 284.199 502.333 284.243C501.577 284.544 500.84 284.89 500.127 285.28C499.719 285.504 499.32 285.742 498.929 285.994C498.439 286.314 498.059 286.77 497.839 287.304C497.619 287.838 497.569 288.424 497.697 288.986C497.825 289.548 498.123 290.059 498.554 290.452C498.985 290.846 499.527 291.103 500.11 291.191L500.17 291.2C500.213 291.206 500.25 291.212 500.293 291.218C499 294.228 497.185 296.998 494.928 299.408C492.725 311.001 483.266 312.101 473.147 308.725H473.141C472.031 313.429 470.422 318.007 468.341 322.386H451.195C451.133 322.2 451.078 322.009 451.022 321.823C452.61 321.92 454.203 321.828 455.767 321.547C454.495 320.025 453.223 318.492 451.951 316.97C451.922 316.941 451.895 316.911 451.871 316.88C451.225 316.101 450.574 315.328 449.929 314.549L449.928 314.548C449.894 312.161 450.175 309.778 450.765 307.461Z" fill="#F2F2F2"/>
<path d="M112.351 322.012H140.02C144.752 306.477 140.045 269.764 146.283 254.759C158.25 225.987 173.538 195.629 202.073 181.581C214.257 175.582 227.541 173.239 241.107 173.367C259.848 173.54 279.116 178.445 296.756 184.945C303.972 187.598 311.122 190.515 318.244 193.496C345.076 204.737 371.617 216.98 400.471 220.289C436.984 224.474 479.913 208.547 489.886 174.242C497.497 147.978 483.79 120.711 469.414 97.2539C455.038 73.7974 438.969 48.6998 441.594 21.5419C441.604 21.4508 441.613 21.3505 441.632 21.2593C442.62 11.5047 448.594 4.49439 456.939 0H420.605C420.125 25.3346 435.159 47.697 448.688 69.777C463.064 93.2245 476.771 120.501 469.16 146.765C459.187 181.061 376.61 140.859 340.097 136.666C329.785 135.49 346.165 139.674 336.333 136.666C320.914 131.952 319.204 175.181 304.198 168.836C294.856 164.88 285.504 160.95 276.03 157.459C272.107 156.009 268.099 154.651 264.044 153.393C264.035 153.393 264.035 153.393 264.025 153.384C236.798 144.979 207.022 141.706 181.864 153.858C181.695 153.94 181.516 154.022 181.347 154.104C152.812 168.143 137.524 198.501 125.557 227.273C115.669 251.057 117.224 296.923 112.351 322.012Z" fill="#F2F2F2"/>
<path d="M266.291 321.216C336.477 321.216 393.374 265.746 393.374 197.32C393.374 128.895 336.477 73.4248 266.291 73.4248C196.106 73.4248 139.209 128.895 139.209 197.32C139.209 265.746 196.106 321.216 266.291 321.216Z" fill="white"/>
<path d="M265.928 322.012C140.193 324.828 137.436 266.59 137.436 197.32C137.436 128.052 195.24 71.6973 266.291 71.6973C337.342 71.6973 395.147 128.052 395.147 197.32C395.147 266.59 336.979 322.012 265.928 322.012ZM266.291 75.154C197.195 75.154 142.145 129.967 140.982 197.32C139.899 259.967 208.163 338.142 266.291 319.489C297.464 286.018 385.597 249.969 391.601 197.32C399.236 130.37 335.388 75.154 266.291 75.154Z" fill="#3F3D56"/>
<path d="M248.955 261.802C246.76 261.802 244.596 261.304 242.633 260.347C240.67 259.39 238.963 258 237.647 256.288L202.977 211.22C201.862 209.772 201.051 208.124 200.589 206.371C200.128 204.617 200.025 202.792 200.288 201C200.55 199.208 201.172 197.484 202.118 195.926C203.064 194.368 204.315 193.007 205.801 191.921C207.286 190.835 208.977 190.045 210.776 189.596C212.574 189.147 214.446 189.048 216.285 189.304C218.123 189.561 219.891 190.168 221.488 191.091C223.086 192.013 224.481 193.234 225.595 194.683L248.277 224.165L306.534 138.973C308.614 135.934 311.848 133.824 315.523 133.109C319.198 132.393 323.015 133.13 326.133 135.157C329.252 137.183 331.417 140.335 332.153 143.917C332.889 147.5 332.135 151.221 330.058 154.263L260.718 255.665C259.464 257.498 257.777 259.012 255.798 260.079C253.82 261.147 251.608 261.736 249.348 261.797C249.217 261.8 249.086 261.802 248.955 261.802Z" fill="#F2F2F2"/>
<path d="M4.05134e-06 322.107C-0.000354434 322.224 0.023081 322.341 0.0689553 322.449C0.11483 322.558 0.182242 322.656 0.267312 322.739C0.352382 322.822 0.453425 322.888 0.564641 322.932C0.675858 322.977 0.795057 323 0.91536 323H551.085C551.327 323 551.56 322.906 551.732 322.738C551.904 322.571 552 322.344 552 322.107C552 321.871 551.904 321.644 551.732 321.476C551.56 321.309 551.327 321.215 551.085 321.215H0.91536C0.795058 321.214 0.675868 321.237 0.564653 321.282C0.453438 321.327 0.352393 321.393 0.267324 321.475C0.182254 321.558 0.114843 321.657 0.068967 321.765C0.0230913 321.874 -0.00035035 321.99 4.05134e-06 322.107Z" fill="#CCCCCC"/>
<path d="M347.443 313.36H340.002L336.463 285.377L347.445 285.378L347.443 313.36Z" fill="#FFB6B6"/>
<path d="M347.706 320.928L324.823 320.927V320.645C324.823 318.342 325.762 316.133 327.432 314.505C329.102 312.877 331.367 311.962 333.729 311.962L337.91 308.87L345.708 311.962L347.706 311.962L347.706 320.928Z" fill="#2F2E41"/>
<path d="M315.092 278.68L308.219 281.459L293.954 256.933L304.099 252.832L315.092 278.68Z" fill="#FFB6B6"/>
<path d="M318.308 285.573L297.171 294.118L297.06 293.857C296.155 291.73 296.154 289.34 297.057 287.212C297.96 285.084 299.694 283.393 301.875 282.51L304.522 278.093L312.941 278.037L314.786 277.291L318.308 285.573Z" fill="#2F2E41"/>
<path d="M355.952 154.18L303.143 159.559L296.079 182.754L271.615 221.082C271.615 221.082 288.685 249.093 287.083 248.788C285.48 248.483 288.684 256.118 290.928 255.675C293.172 255.232 295.505 260.21 293.954 261.095C292.402 261.98 298.626 269.465 298.626 269.465L308.139 261.141C310.162 246.262 307.718 233.019 299.008 222.071L326.261 193.387L331.429 191.296L335.531 297.738L350.704 297.981C354.891 276.984 356.994 258.086 353.722 244.604C353.722 244.604 354.192 204.105 355.986 204.548C357.781 204.991 356.26 199.715 356.26 199.715C356.26 199.715 354.688 195.221 356.619 193.357C358.55 191.493 357.344 180.529 357.344 180.529C360.535 170.154 359.574 161.587 355.952 154.18Z" fill="#2F2E41"/>
<path d="M315.348 68.582L329.947 64.8939L336.761 55.7305L352.945 57.6701L356.39 70.1691L367.912 76.6892C367.912 76.6892 361.544 142.356 363.059 145.962C364.574 149.568 370.005 149.27 365.366 153.918C360.728 158.566 360.113 156.694 361.19 161.754C362.266 166.815 370.112 172.17 361.19 172.117C352.267 172.064 298.426 171.314 299.964 165.315C301.503 159.316 301.479 160.839 303.798 157.078C306.118 153.317 307.679 155.419 306.898 149.869C306.118 144.319 306.887 140.569 306.887 137.57C306.887 134.57 309.464 107.314 309.464 107.314L315.348 68.582Z" fill="#E6E6E6"/>
<path d="M344.813 54.0362C354.285 54.0362 361.963 46.5503 361.963 37.3159C361.963 28.0816 354.285 20.5957 344.813 20.5957C335.341 20.5957 327.662 28.0816 327.662 37.3159C327.662 46.5503 335.341 54.0362 344.813 54.0362Z" fill="#FFB6B6"/>
<path d="M326.842 27.1972C328.348 28.3836 328.003 34.1535 329.681 33.2131C331.359 32.2726 331.708 30.5884 333.641 30.5708C335.216 30.6556 336.702 31.3111 337.807 32.4089C338.013 32.5901 338.208 32.78 338.398 32.9679C338.572 32.9085 338.743 32.8546 338.924 32.8105C340.279 32.4879 341.71 32.6843 342.921 33.3591C341.802 33.437 340.738 33.8556 339.877 34.5558C340.245 34.9588 340.62 35.364 341.013 35.7385C344.298 38.8766 351.033 35.5348 355.561 34.7807C351.789 38.7955 352.533 41.0367 353.471 46.4029L353.475 46.6961C353.668 45.4585 357.733 45.5202 357.063 47.1623C356.221 48.7845 355.168 50.2939 353.929 51.653C359.469 47.9117 363.941 42.7547 364.929 36.5253C365.132 35.2155 365.528 33.8791 365.145 32.602C364.982 31.9563 364.605 31.3813 364.072 30.9669C363.538 30.5524 362.879 30.3218 362.197 30.3112C362.814 28.4003 362.889 26.362 362.413 24.4132C361.936 22.4644 360.927 20.6778 359.493 19.2434C358.059 17.8089 356.252 16.7803 354.266 16.2668C352.28 15.7533 350.188 15.7742 348.213 16.3272C346.411 16.9514 344.654 17.6909 342.952 18.5408C341.235 19.3939 339.291 19.7149 337.381 19.4608C336.191 19.2212 334.986 18.6205 333.819 18.9606C332.468 19.3557 331.887 20.7471 331.345 22.0903C332.362 22.4524 333.245 23.1017 333.881 23.9553C332.83 23.5772 331.684 23.5318 330.605 23.8255C330.585 23.8289 330.565 23.8341 330.547 23.841C329.323 25.9785 329.252 26.5027 326.842 27.1972Z" fill="#2F2E41"/>
<path d="M332.497 60.4142C323.713 59.7247 315.692 66.2743 312.035 74.0914C308.378 81.9085 308.139 90.7765 307.961 99.3665L307.41 126.068C307.328 130.019 307.246 133.971 307.044 137.918C306.94 141.759 306.445 145.58 305.565 149.326C303.774 156.198 299.834 162.322 295.952 168.318C305.891 171.247 316 173.601 326.224 175.367C331.33 159.266 336.494 142.703 335.239 125.894C334.575 117 332.121 108.316 331.188 99.4451C329.867 86.8809 331.618 74.2241 333.366 61.7094" fill="#3F3D56"/>
<path d="M353.82 61.916C362.521 63.28 368.717 71.4991 370.366 79.9392C372.014 88.3794 370.086 97.0491 368.166 105.435C366.177 114.123 364.188 122.812 362.198 131.5C361.315 135.357 360.432 139.215 359.667 143.096C358.923 146.866 362.037 151.702 362.073 155.541C362.139 162.631 360.726 168.471 363.037 175.194C352.668 175.739 342.276 175.685 331.914 175.033C330.876 158.21 329.894 140.925 335.208 124.888C338.019 116.402 342.518 108.535 345.585 100.134C349.928 88.2345 351.311 75.5344 352.661 62.9732" fill="#3F3D56"/>
<path d="M359.621 183.133C358.974 182.035 358.793 180.735 359.115 179.509C359.438 178.283 360.238 177.228 361.346 176.568C361.573 176.437 361.812 176.325 362.058 176.233L360.948 139.402L372.967 136.42L368.384 179.329C368.698 180.354 368.654 181.452 368.261 182.451C367.867 183.45 367.145 184.294 366.208 184.851C365.671 185.163 365.077 185.369 364.459 185.457C363.841 185.545 363.211 185.514 362.605 185.364C362 185.215 361.43 184.951 360.929 184.587C360.428 184.223 360.006 183.767 359.686 183.244C359.664 183.207 359.642 183.17 359.621 183.133Z" fill="#FFB6B6"/>
<path d="M358.743 76.6301C358.743 76.6301 367.133 69.7132 374.192 83.5433C381.252 97.3735 377.307 128.969 376.313 130.655C375.319 132.341 374.713 129.992 375.257 134.487C375.7 138.142 373.068 137.685 374.012 138.465C376.501 140.522 369.53 140.757 373.111 142.569C376.691 144.381 360.667 144.721 360.667 144.721C360.667 144.721 358.729 143.371 360.075 138.283C360.831 135.425 362.724 134.379 360.705 133.057C358.686 131.734 362.79 127.645 362.793 126.748C362.796 125.851 356.393 106.229 356.393 106.229L358.743 76.6301Z" fill="#3F3D56"/>
<path d="M289.319 247.006C287.125 247.006 284.961 246.508 282.998 245.551C281.035 244.594 279.328 243.204 278.012 241.492L243.342 196.424C242.227 194.976 241.416 193.329 240.954 191.575C240.493 189.821 240.39 187.996 240.652 186.204C240.915 184.412 241.537 182.688 242.482 181.13C243.428 179.572 244.68 178.211 246.165 177.125C247.651 176.039 249.341 175.249 251.14 174.8C252.939 174.351 254.811 174.252 256.649 174.508C258.488 174.765 260.256 175.372 261.853 176.295C263.451 177.218 264.846 178.438 265.959 179.887L288.642 209.37L346.898 124.177C347.928 122.671 349.252 121.378 350.795 120.371C352.337 119.364 354.068 118.663 355.888 118.308C357.709 117.953 359.583 117.951 361.404 118.302C363.225 118.653 364.958 119.351 366.502 120.355C368.047 121.359 369.373 122.649 370.406 124.153C371.439 125.657 372.159 127.344 372.523 129.119C372.887 130.894 372.889 132.721 372.528 134.497C372.168 136.272 371.453 137.961 370.423 139.467L301.083 240.869C299.828 242.703 298.141 244.217 296.163 245.284C294.185 246.351 291.973 246.94 289.713 247.002C289.582 247.004 289.451 247.006 289.319 247.006Z" fill="#1A7474"/>
<path d="M315.748 176.736C316.455 175.675 316.71 174.386 316.458 173.144C316.205 171.903 315.466 170.806 314.397 170.088C314.177 169.945 313.946 169.82 313.705 169.715L316.901 133.001L305.069 129.375L307.213 172.465C306.842 173.472 306.823 174.571 307.159 175.59C307.496 176.608 308.169 177.49 309.073 178.096C309.591 178.437 310.173 178.674 310.785 178.796C311.397 178.917 312.028 178.919 312.641 178.803C313.254 178.686 313.838 178.453 314.358 178.117C314.879 177.781 315.327 177.348 315.676 176.843C315.7 176.808 315.724 176.772 315.748 176.736Z" fill="#FFB6B6"/>
<path d="M322.672 70.5186C322.672 70.5186 314.687 63.1603 306.854 76.5889C299.022 90.0176 301.17 121.777 302.066 123.514C302.963 125.251 303.702 122.939 302.903 127.397C302.254 131.023 304.908 130.709 303.921 131.437C301.319 133.356 308.266 133.966 304.588 135.583C300.911 137.2 316.891 138.402 316.891 138.402C316.891 138.402 318.903 137.159 317.847 132.005C317.254 129.111 315.424 127.965 317.514 126.753C319.605 125.542 315.739 121.238 315.787 120.342C315.835 119.446 323.34 100.199 323.34 100.199L322.672 70.5186Z" fill="#3F3D56"/>
</g>
<defs>
<clipPath id="clip0_92_785">
<rect width="552" height="323" fill="white"/>
</clipPath>
</defs>
</svg>
